<?xml version="1.0" encoding="UTF-8" standalone="no"?>
<!DOCTYPE svg PUBLIC "-//W3C//DTD SVG 1.1//EN"
 "http://www.w3.org/Graphics/SVG/1.1/DTD/svg11.dtd">
<!-- Generated by graphviz version 13.1.2 (20250808.2320)
 -->
<!-- Title: UMLDijagramKlasa Pages: 1 -->
<svg width="2338pt" height="930pt"
 viewBox="0.00 0.00 2338.00 930.00" xmlns="http://www.w3.org/2000/svg" xmlns:xlink="http://www.w3.org/1999/xlink">
<g id="graph0" class="graph" transform="scale(1 1) rotate(0) translate(32.4 897.65)">
<title>UMLDijagramKlasa</title>
<polygon fill="white" stroke="none" points="-32.4,32.4 -32.4,-897.65 2305.53,-897.65 2305.53,32.4 -32.4,32.4"/>
<text xml:space="preserve" text-anchor="middle" x="1136.56" y="-838.45" font-family="DejaVu Sans" font-size="24.00">UML klasni dijagram &#45; domenski model</text>
<!-- Entity -->
<g id="node1" class="node">
<title>Entity</title>
<polygon fill="#e2e8f0" stroke="none" points="708.25,-143 708.25,-181.5 1077.75,-181.5 1077.75,-143 708.25,-143"/>
<text xml:space="preserve" text-anchor="start" x="824.75" y="-159.3" font-family="DejaVu Sans" font-weight="bold" font-size="16.00">«abstract» Entity</text>
<text xml:space="preserve" text-anchor="start" x="716.25" y="-121.7" font-family="DejaVu Sans" font-size="14.00">+ Id: long</text>
<text xml:space="preserve" text-anchor="start" x="898.75" y="-121.7" font-family="DejaVu Sans" font-size="14.00">+ DateUpdated: DateTime</text>
<text xml:space="preserve" text-anchor="start" x="716.25" y="-86.2" font-family="DejaVu Sans" font-size="14.00">+ DateCreated: DateTime</text>
<text xml:space="preserve" text-anchor="start" x="898.75" y="-86.2" font-family="DejaVu Sans" font-size="14.00">+ Deleted: bool</text>
<polygon fill="none" stroke="#0f172a" points="707.25,-71 707.25,-182.5 1078.75,-182.5 1078.75,-71 707.25,-71"/>
</g>
<!-- ApiKey -->
<g id="node2" class="node">
<title>ApiKey</title>
<polygon fill="#dbeafe" stroke="none" points="622.38,-587 622.38,-625.5 917.62,-625.5 917.62,-587 622.38,-587"/>
<text xml:space="preserve" text-anchor="start" x="743" y="-603.3" font-family="DejaVu Sans" font-weight="bold" font-size="16.00">ApiKey</text>
<text xml:space="preserve" text-anchor="start" x="630.38" y="-565.7" font-family="DejaVu Sans" font-size="14.00">+ Name: string</text>
<text xml:space="preserve" text-anchor="start" x="745.38" y="-565.7" font-family="DejaVu Sans" font-size="14.00">+ KeyHash: string</text>
<text xml:space="preserve" text-anchor="start" x="630.38" y="-530.2" font-family="DejaVu Sans" font-size="14.00">+ IsActive: bool</text>
<text xml:space="preserve" text-anchor="start" x="745.38" y="-530.2" font-family="DejaVu Sans" font-size="14.00">+ LastUsedAt: DateTime?</text>
<polygon fill="none" stroke="#0f172a" points="621.38,-515 621.38,-626.5 918.62,-626.5 918.62,-515 621.38,-515"/>
</g>
<!-- ApiKey&#45;&gt;Entity -->
<g id="edge1" class="edge">
<title>ApiKey&#45;&gt;Entity</title>
<path fill="none" stroke="#334155" d="M785.21,-515.11C808.05,-433.02 851.12,-278.23 875.33,-191.24"/>
<polygon fill="none" stroke="#334155" points="877.98,-192.18 877.42,-183.72 872.58,-190.68 877.98,-192.18"/>
<text xml:space="preserve" text-anchor="middle" x="862.02" y="-301.8" font-family="DejaVu Sans" font-size="11.00">inherits</text>
</g>
<!-- Meeting -->
<g id="node3" class="node">
<title>Meeting</title>
<polygon fill="#dbeafe" stroke="none" points="1,-746.75 1,-785.25 555,-785.25 555,-746.75 1,-746.75"/>
<text xml:space="preserve" text-anchor="start" x="245" y="-763.05" font-family="DejaVu Sans" font-weight="bold" font-size="16.00">Meeting</text>
<text xml:space="preserve" text-anchor="start" x="9" y="-725.45" font-family="DejaVu Sans" font-size="14.00">+ RoomId: Guid</text>
<text xml:space="preserve" text-anchor="start" x="217.75" y="-725.45" font-family="DejaVu Sans" font-size="14.00">+ RecordingS3Key: string?</text>
<text xml:space="preserve" text-anchor="start" x="9" y="-689.95" font-family="DejaVu Sans" font-size="14.00">+ Title: string?</text>
<text xml:space="preserve" text-anchor="start" x="217.75" y="-689.95" font-family="DejaVu Sans" font-size="14.00">+ RecordingSizeBytes: long?</text>
<text xml:space="preserve" text-anchor="start" x="9" y="-654.45" font-family="DejaVu Sans" font-size="14.00">+ Status: MeetingStatus</text>
<text xml:space="preserve" text-anchor="start" x="217.75" y="-654.45" font-family="DejaVu Sans" font-size="14.00">+ RecordingDurationSeconds: int?</text>
<text xml:space="preserve" text-anchor="start" x="9" y="-618.95" font-family="DejaVu Sans" font-size="14.00">+ ScheduledAt: DateTime?</text>
<text xml:space="preserve" text-anchor="start" x="217.75" y="-618.95" font-family="DejaVu Sans" font-size="14.00">+ RecordingPresignedUrl: string?</text>
<text xml:space="preserve" text-anchor="start" x="9" y="-583.45" font-family="DejaVu Sans" font-size="14.00">+ DurationLimitMinutes: int</text>
<text xml:space="preserve" text-anchor="start" x="217.75" y="-583.45" font-family="DejaVu Sans" font-size="14.00">+ RecordingFormat: string</text>
<text xml:space="preserve" text-anchor="start" x="9" y="-547.95" font-family="DejaVu Sans" font-size="14.00">+ RecordingEnabled: bool</text>
<text xml:space="preserve" text-anchor="start" x="217.75" y="-547.95" font-family="DejaVu Sans" font-size="14.00">+ CallbackUrl: string</text>
<text xml:space="preserve" text-anchor="start" x="9" y="-512.45" font-family="DejaVu Sans" font-size="14.00">+ RecordingWidth: int</text>
<text xml:space="preserve" text-anchor="start" x="217.75" y="-512.45" font-family="DejaVu Sans" font-size="14.00">+ CallbackSecret: string</text>
<text xml:space="preserve" text-anchor="start" x="9" y="-476.95" font-family="DejaVu Sans" font-size="14.00">+ RecordingHeight: int</text>
<text xml:space="preserve" text-anchor="start" x="217.75" y="-476.95" font-family="DejaVu Sans" font-size="14.00">+ Metadata: string?</text>
<text xml:space="preserve" text-anchor="start" x="9" y="-441.45" font-family="DejaVu Sans" font-size="14.00">+ RecordingS3Bucket: string?</text>
<text xml:space="preserve" text-anchor="start" x="217.75" y="-441.45" font-family="DejaVu Sans" font-size="14.00">+ StartedAt: DateTime?</text>
<text xml:space="preserve" text-anchor="start" x="9" y="-405.95" font-family="DejaVu Sans" font-size="14.00">+ EndedAt: DateTime?</text>
<text xml:space="preserve" text-anchor="start" x="217.75" y="-405.95" font-family="DejaVu Sans" font-size="14.00">+ Participants: ICollection&lt;Participant&gt;</text>
<text xml:space="preserve" text-anchor="start" x="9" y="-370.45" font-family="DejaVu Sans" font-size="14.00">+ LiveKitEgressId: string?</text>
<text xml:space="preserve" text-anchor="start" x="217.75" y="-370.45" font-family="DejaVu Sans" font-size="14.00">+ CallbackAttempts: ICollection&lt;CallbackAttempt&gt;</text>
<polygon fill="none" stroke="#0f172a" points="0,-355.25 0,-786.25 556,-786.25 556,-355.25 0,-355.25"/>
</g>
<!-- Meeting&#45;&gt;Entity -->
<g id="edge2" class="edge">
<title>Meeting&#45;&gt;Entity</title>
<path fill="none" stroke="#334155" d="M555.81,-370.09C647.92,-303.89 743.61,-235.12 809.42,-187.82"/>
<polygon fill="none" stroke="#334155" points="810.8,-190.28 815.66,-183.33 807.53,-185.73 810.8,-190.28"/>
<text xml:space="preserve" text-anchor="middle" x="660.08" y="-301.8" font-family="DejaVu Sans" font-size="11.00">inherits</text>
</g>
<!-- Participant -->
<g id="node4" class="node">
<title>Participant</title>
<polygon fill="#dbeafe" stroke="none" points="1386.62,-675.75 1386.62,-714.25 1791.38,-714.25 1791.38,-675.75 1386.62,-675.75"/>
<text xml:space="preserve" text-anchor="start" x="1545.12" y="-692.05" font-family="DejaVu Sans" font-weight="bold" font-size="16.00">Participant</text>
<text xml:space="preserve" text-anchor="start" x="1394.62" y="-654.45" font-family="DejaVu Sans" font-size="14.00">+ MeetingId: long</text>
<text xml:space="preserve" text-anchor="start" x="1559.88" y="-654.45" font-family="DejaVu Sans" font-size="14.00">+ JoinedAt: DateTime?</text>
<text xml:space="preserve" text-anchor="start" x="1394.62" y="-618.95" font-family="DejaVu Sans" font-size="14.00">+ Meeting: Meeting?</text>
<text xml:space="preserve" text-anchor="start" x="1559.88" y="-618.95" font-family="DejaVu Sans" font-size="14.00">+ LeftAt: DateTime?</text>
<text xml:space="preserve" text-anchor="start" x="1394.62" y="-583.45" font-family="DejaVu Sans" font-size="14.00">+ Name: string</text>
<text xml:space="preserve" text-anchor="start" x="1559.88" y="-583.45" font-family="DejaVu Sans" font-size="14.00">+ LiveKitEgressId: string?</text>
<text xml:space="preserve" text-anchor="start" x="1394.62" y="-547.95" font-family="DejaVu Sans" font-size="14.00">+ Role: ParticipantRole</text>
<text xml:space="preserve" text-anchor="start" x="1559.88" y="-547.95" font-family="DejaVu Sans" font-size="14.00">+ RecordingS3Key: string?</text>
<text xml:space="preserve" text-anchor="start" x="1394.62" y="-512.45" font-family="DejaVu Sans" font-size="14.00">+ Token: string</text>
<text xml:space="preserve" text-anchor="start" x="1559.88" y="-512.45" font-family="DejaVu Sans" font-size="14.00">+ RecordingSizeBytes: long?</text>
<text xml:space="preserve" text-anchor="start" x="1394.62" y="-476.95" font-family="DejaVu Sans" font-size="14.00">+ JoinLink: string</text>
<text xml:space="preserve" text-anchor="start" x="1559.88" y="-476.95" font-family="DejaVu Sans" font-size="14.00">+ RecordingDurationSeconds: int?</text>
<text xml:space="preserve" text-anchor="start" x="1559.88" y="-441.45" font-family="DejaVu Sans" font-size="14.00">+ RecordingPresignedUrl: string?</text>
<polygon fill="none" stroke="#0f172a" points="1385.62,-426.25 1385.62,-715.25 1792.38,-715.25 1792.38,-426.25 1385.62,-426.25"/>
</g>
<!-- Meeting&#45;&gt;Participant -->
<g id="edge5" class="edge">
<title>Meeting:e&#45;&gt;Participant:w</title>
<path fill="none" stroke="#334155" d="M558.29,-581.14C564.74,-624.19 589,-786.25 589,-786.25 589,-786.25 621.5,-807.75 621.5,-807.75 621.5,-807.75 1320.5,-807.75 1320.5,-807.75 1320.5,-807.75 1353,-786.25 1353,-786.25 1353,-786.25 1384.82,-570.75 1384.82,-570.75"/>
<polygon fill="none" stroke="#334155" points="558.29,-581.14 554.42,-576.86 556.87,-571.64 560.75,-575.91 558.29,-581.14"/>
<text xml:space="preserve" text-anchor="middle" x="927.85" y="-813.05" font-family="DejaVu Sans" font-size="11.00">1 &#160;Participants &#160;0..*</text>
</g>
<!-- CallbackAttempt -->
<g id="node5" class="node">
<title>CallbackAttempt</title>
<polygon fill="#dbeafe" stroke="none" points="984.88,-604.75 984.88,-643.25 1319.12,-643.25 1319.12,-604.75 984.88,-604.75"/>
<text xml:space="preserve" text-anchor="start" x="1085.25" y="-621.05" font-family="DejaVu Sans" font-weight="bold" font-size="16.00">CallbackAttempt</text>
<text xml:space="preserve" text-anchor="start" x="992.88" y="-583.45" font-family="DejaVu Sans" font-size="14.00">+ MeetingId: long</text>
<text xml:space="preserve" text-anchor="start" x="1155.12" y="-583.45" font-family="DejaVu Sans" font-size="14.00">+ StatusCode: int?</text>
<text xml:space="preserve" text-anchor="start" x="992.88" y="-547.95" font-family="DejaVu Sans" font-size="14.00">+ Meeting: Meeting?</text>
<text xml:space="preserve" text-anchor="start" x="1155.12" y="-547.95" font-family="DejaVu Sans" font-size="14.00">+ Success: bool</text>
<text xml:space="preserve" text-anchor="start" x="992.88" y="-512.45" font-family="DejaVu Sans" font-size="14.00">+ AttemptNumber: int</text>
<text xml:space="preserve" text-anchor="start" x="1155.12" y="-512.45" font-family="DejaVu Sans" font-size="14.00">+ ErrorMessage: string?</text>
<polygon fill="none" stroke="#0f172a" points="983.88,-497.25 983.88,-644.25 1320.12,-644.25 1320.12,-497.25 983.88,-497.25"/>
</g>
<!-- Meeting&#45;&gt;CallbackAttempt -->
<g id="edge6" class="edge">
<title>Meeting:e&#45;&gt;CallbackAttempt:w</title>
<path fill="none" stroke="#334155" d="M558.29,-581.14C564.74,-624.19 589,-786.25 589,-786.25 589,-786.25 621.5,-807.75 621.5,-807.75 621.5,-807.75 918.5,-807.75 918.5,-807.75 918.5,-807.75 951,-786.25 951,-786.25 951,-786.25 983.03,-570.75 983.03,-570.75"/>
<polygon fill="none" stroke="#334155" points="558.29,-581.14 554.42,-576.86 556.87,-571.64 560.75,-575.91 558.29,-581.14"/>
<text xml:space="preserve" text-anchor="middle" x="712.61" y="-813.05" font-family="DejaVu Sans" font-size="11.00">1 &#160;CallbackAttempts &#160;0..*</text>
</g>
<!-- MeetingStatus -->
<g id="node7" class="node">
<title>MeetingStatus</title>
<polygon fill="#fef3c7" stroke="none" points="176.25,-214 176.25,-252.5 379.75,-252.5 379.75,-214 176.25,-214"/>
<text xml:space="preserve" text-anchor="start" x="184.25" y="-230.3" font-family="DejaVu Sans" font-weight="bold" font-size="16.00">«enum» MeetingStatus</text>
<text xml:space="preserve" text-anchor="start" x="184.25" y="-192.7" font-family="DejaVu Sans" font-size="14.00">Scheduled</text>
<text xml:space="preserve" text-anchor="start" x="184.25" y="-157.2" font-family="DejaVu Sans" font-size="14.00">InProgress</text>
<text xml:space="preserve" text-anchor="start" x="184.25" y="-121.7" font-family="DejaVu Sans" font-size="14.00">Completed</text>
<text xml:space="preserve" text-anchor="start" x="184.25" y="-86.2" font-family="DejaVu Sans" font-size="14.00">Failed</text>
<text xml:space="preserve" text-anchor="start" x="184.25" y="-50.7" font-family="DejaVu Sans" font-size="14.00">CallbackFailed</text>
<text xml:space="preserve" text-anchor="start" x="184.25" y="-15.2" font-family="DejaVu Sans" font-size="14.00">RecordingFailed</text>
<polygon fill="none" stroke="#0f172a" points="175.25,0 175.25,-253.5 380.75,-253.5 380.75,0 175.25,0"/>
</g>
<!-- Meeting&#45;&gt;MeetingStatus -->
<g id="edge7" class="edge">
<title>Meeting&#45;&gt;MeetingStatus</title>
<path fill="none" stroke="#334155" stroke-dasharray="5,2" d="M278,-355.55C278,-323.82 278,-291.91 278,-262.44"/>
<polygon fill="#334155" stroke="#334155" points="278,-254.59 281.6,-262.59 278,-257.37 278,-262.59 278,-262.59 278,-262.59 278,-257.37 274.4,-262.59 278,-254.59"/>
<text xml:space="preserve" text-anchor="middle" x="293.75" y="-301.8" font-family="DejaVu Sans" font-size="11.00">Status</text>
</g>
<!-- Participant&#45;&gt;Entity -->
<g id="edge3" class="edge">
<title>Participant&#45;&gt;Entity</title>
<path fill="none" stroke="#334155" d="M1431.26,-426.38C1388.12,-387.17 1353,-355.25 1353,-355.25 1353,-355.25 1148.24,-253.98 1011.94,-186.57"/>
<polygon fill="none" stroke="#334155" points="1013.24,-184.09 1004.83,-183.06 1010.76,-189.11 1013.24,-184.09"/>
<text xml:space="preserve" text-anchor="middle" x="1284.5" y="-301.8" font-family="DejaVu Sans" font-size="11.00">inherits</text>
</g>
<!-- ParticipantRole -->
<g id="node6" class="node">
<title>ParticipantRole</title>
<polygon fill="#fef3c7" stroke="none" points="1484.62,-143 1484.62,-181.5 1693.38,-181.5 1693.38,-143 1484.62,-143"/>
<text xml:space="preserve" text-anchor="start" x="1492.62" y="-159.3" font-family="DejaVu Sans" font-weight="bold" font-size="16.00">«enum» ParticipantRole</text>
<text xml:space="preserve" text-anchor="start" x="1492.62" y="-121.7" font-family="DejaVu Sans" font-size="14.00">Host</text>
<text xml:space="preserve" text-anchor="start" x="1492.62" y="-86.2" font-family="DejaVu Sans" font-size="14.00">Guest</text>
<polygon fill="none" stroke="#0f172a" points="1483.62,-71 1483.62,-182.5 1694.38,-182.5 1694.38,-71 1483.62,-71"/>
</g>
<!-- Participant&#45;&gt;ParticipantRole -->
<g id="edge8" class="edge">
<title>Participant&#45;&gt;ParticipantRole</title>
<path fill="none" stroke="#334155" stroke-dasharray="5,2" d="M1589,-426.55C1589,-347.29 1589,-252.71 1589,-191.51"/>
<polygon fill="#334155" stroke="#334155" points="1589,-183.58 1592.6,-191.58 1589,-186.36 1589,-191.58 1589,-191.58 1589,-191.58 1589,-186.36 1585.4,-191.58 1589,-183.58"/>
<text xml:space="preserve" text-anchor="middle" x="1600.25" y="-301.8" font-family="DejaVu Sans" font-size="11.00">Role</text>
</g>
<!-- CallbackAttempt&#45;&gt;Entity -->
<g id="edge4" class="edge">
<title>CallbackAttempt&#45;&gt;Entity</title>
<path fill="none" stroke="#334155" d="M1109.52,-497.26C1059.5,-411.9 977.25,-271.53 929.82,-190.59"/>
<polygon fill="none" stroke="#334155" points="932.29,-189.26 925.83,-183.78 927.46,-192.09 932.29,-189.26"/>
<text xml:space="preserve" text-anchor="middle" x="1018.8" y="-301.8" font-family="DejaVu Sans" font-size="11.00">inherits</text>
</g>
<!-- EndMeetingReason -->
<g id="node8" class="node">
<title>EndMeetingReason</title>
<polygon fill="#fef3c7" stroke="none" points="1760.88,-160.75 1760.88,-199.25 2001.12,-199.25 2001.12,-160.75 1760.88,-160.75"/>
<text xml:space="preserve" text-anchor="start" x="1768.88" y="-177.05" font-family="DejaVu Sans" font-weight="bold" font-size="16.00">«enum» EndMeetingReason</text>
<text xml:space="preserve" text-anchor="start" x="1768.88" y="-139.45" font-family="DejaVu Sans" font-size="14.00">Manual</text>
<text xml:space="preserve" text-anchor="start" x="1768.88" y="-103.95" font-family="DejaVu Sans" font-size="14.00">Timeout</text>
<text xml:space="preserve" text-anchor="start" x="1768.88" y="-68.45" font-family="DejaVu Sans" font-size="14.00">Error</text>
<polygon fill="none" stroke="#0f172a" points="1759.88,-53.25 1759.88,-200.25 2002.12,-200.25 2002.12,-53.25 1759.88,-53.25"/>
</g>
<!-- CallbackStatus -->
<g id="node9" class="node">
<title>CallbackStatus</title>
<polygon fill="#fef3c7" stroke="none" points="2067.88,-143 2067.88,-181.5 2272.12,-181.5 2272.12,-143 2067.88,-143"/>
<text xml:space="preserve" text-anchor="start" x="2075.88" y="-159.3" font-family="DejaVu Sans" font-weight="bold" font-size="16.00">«enum» CallbackStatus</text>
<text xml:space="preserve" text-anchor="start" x="2075.88" y="-121.7" font-family="DejaVu Sans" font-size="14.00">Success</text>
<text xml:space="preserve" text-anchor="start" x="2075.88" y="-86.2" font-family="DejaVu Sans" font-size="14.00">Failed</text>
<polygon fill="none" stroke="#0f172a" points="2066.88,-71 2066.88,-182.5 2273.12,-182.5 2273.12,-71 2066.88,-71"/>
</g>
</g>
</svg>
